# xmcd
#
# Track frame offsets:
# 150
# 21129
# 38109
# 50494
# 66302
# 78714
# 99010
# 111688
# 126331
# 139840
# 154746
# 176876
# 194003
# 218072
# 230906
#
# Disc length: 3398 seconds
#
# Revision: 0
# Processed by: cddbd v1.5PL3 Copyright (c) Steve Scherf et al.
# Submitted via: Audion 3.0.2 (http://www.panic.com/audion/)
#
DISCID=e40d440f
DTITLE=Stephen Warbeck (Composer) - O.M.P.S.  Love's Brother
DYEAR=1900
DGENRE=
TTITLE0=The Beginning
TTITLE1=The Party
TTITLE2=Il Surriento
TTITLE3=Angelo
TTITLE4=Destiny
TTITLE5=Rosetta
TTITLE6=The Cupboard
TTITLE7=The Marriage Vows
TTITLE8=The Fresco
TTITLE9=The Dream That Wasn't
TTITLE10=The Diary
TTITLE11=Goodbye
TTITLE12=Oltre La Tempesta
TTITLE13=Concetta
TTITLE14=The Boat
EXTD=
EXTT0=
EXTT1=
EXTT2=
EXTT3=
EXTT4=
EXTT5=
EXTT6=
EXTT7=
EXTT8=
EXTT9=
EXTT10=
EXTT11=
EXTT12=
EXTT13=
EXTT14=
PLAYORDER=
